#define IconEnter_width 10
#define IconEnter_height 10
static unsigned char IconEnter_bits[] = {
   0x00, 0x02, 0x00, 0x02, 0x00, 0x02, 0x04, 0x02, 0x02, 0x02, 0xff, 0x03,
   0x02, 0x00, 0x04, 0x00, 0x00, 0x00, 0x00, 0x00 };
