#define IconSave_width 10
#define IconSave_height 10
static unsigned char IconSave_bits[] = {
   0xff, 0x03, 0x03, 0x03, 0x7b, 0x03, 0x03, 0x03, 0x7b, 0x03, 0x03, 0x03,
   0xff, 0x03, 0x43, 0x03, 0x43, 0x03, 0xfe, 0x01 };
