#define IconBackSpace_width 10
#define IconBackSpace_height 10
static unsigned char IconBackSpace_bits[] = {
   0x00, 0x00, 0x00, 0x00, 0x00, 0x00, 0x04, 0x00, 0x02, 0x00, 0xff, 0x03,
   0x02, 0x00, 0x04, 0x00, 0x00, 0x00, 0x00, 0x00 };
